<svg width="88" height="102" viewBox="0 0 88 102" fill="none" xmlns="http://www.w3.org/2000/svg">
<path fill-rule="evenodd" clip-rule="evenodd" d="M1.44263 82.083H12.9836V93.9189H59.1475V69.8527C59.1475 68.2251 60.4459 66.8938 62.0328 66.8938V57.8211C51.4459 56.3746 43.2787 47.0774 43.2787 35.8242C43.2787 23.5677 52.967 13.6318 64.918 13.6318V1.7959H1.44263V82.083ZM21.6399 25.4676C16.8793 25.4676 12.9834 21.4731 12.9834 16.5908V13.6318C17.7445 13.6318 21.6399 17.6267 21.6399 22.5088V25.4676ZM21.6399 29.8408V26.8818C21.6399 21.9987 25.5352 18.0048 30.2964 18.0048V20.9638C30.2964 25.8463 26.4006 29.8408 21.6399 29.8408ZM21.6399 41.6767C16.8793 41.6767 12.9842 37.6821 12.9842 32.7997V29.8408C17.7054 29.8408 21.5753 33.7681 21.6399 38.5952V41.6767Z" fill="#E5ECF5"/>
<path fill-rule="evenodd" clip-rule="evenodd" d="M12.9834 16.591C12.9834 21.4733 16.8793 25.4678 21.6399 25.4678V22.5088C21.6399 17.6267 17.7444 13.6318 12.9834 13.6318V16.591ZM60.1093 32.5368C60.1093 37.9612 64.4368 42.3993 69.7258 42.3993L69.7268 39.1117C69.7268 33.6874 65.3989 29.2492 60.1093 29.2492V32.5368Z" fill="#B6EFBB"/>
<path fill-rule="evenodd" clip-rule="evenodd" d="M21.6399 29.8406C26.4006 29.8406 30.2964 25.8462 30.2964 20.9639V18.0049C25.5354 18.0049 21.6399 21.9987 21.6399 26.8818V29.8406ZM12.9844 32.7998C12.9844 37.6821 16.8795 41.6768 21.6401 41.6768V38.5951C21.5757 33.768 17.7056 29.8406 12.9844 29.8406V32.7998Z" fill="#71E4BF"/>
<path fill-rule="evenodd" clip-rule="evenodd" d="M43.2787 35.8242C43.2787 48.1119 52.9973 58.0166 64.918 58.0166C76.8387 58.0166 86.5574 48.1119 86.5574 35.8242C86.5574 23.5677 76.8691 13.6318 64.918 13.6318C52.967 13.6318 43.2787 23.5677 43.2787 35.8242ZM64.918 52.0988C56.1521 52.0988 49.0492 44.8144 49.0492 35.8244C49.0492 26.8344 56.1521 19.55 64.918 19.55C73.684 19.55 80.7869 26.8344 80.7869 35.8244C80.7869 44.8142 73.684 52.0988 64.918 52.0988Z" fill="#E8AB4C"/>
<path fill-rule="evenodd" clip-rule="evenodd" d="M49.0492 35.8242C49.0492 44.8142 56.1521 52.0986 64.918 52.0986C73.684 52.0986 80.7869 44.8142 80.7869 35.8242C80.7869 26.8342 73.684 19.5498 64.918 19.5498C56.1521 19.5498 49.0492 26.8344 49.0492 35.8242ZM69.7258 42.3993C64.4368 42.3993 60.1093 37.9612 60.1093 32.5368V29.2492C65.3989 29.2492 69.7268 33.6872 69.7268 39.1117L69.7258 42.3993Z" fill="#B6E6FA"/>
<path fill-rule="evenodd" clip-rule="evenodd" d="M62.0327 66.8934H67.8032V57.8208C65.8928 58.0818 63.9431 58.0818 62.0327 57.8208V66.8934Z" fill="#E1763A"/>
<path fill-rule="evenodd" clip-rule="evenodd" d="M64.918 99.8367C68.0917 99.8367 70.6884 97.1738 70.6884 93.9187V69.8525C70.6884 68.2249 69.3901 66.8936 67.8032 66.8936H62.0327C60.4458 66.8936 59.1475 68.2249 59.1475 69.8525V93.9187C59.1475 97.1736 61.744 99.8367 64.918 99.8367Z" fill="#E8AB4C"/>
<path fill-rule="evenodd" clip-rule="evenodd" d="M1.44263 82.083L12.9836 93.9189V82.083H1.44263Z" fill="#B0C5E0"/>
<path fill-rule="evenodd" clip-rule="evenodd" d="M1.44263 1.7959H5.7705V82.0828H1.44263V1.7959Z" fill="#B0C5E0"/>
<path fill-rule="evenodd" clip-rule="evenodd" d="M49.0492 35.8238C49.0492 45.7289 57.572 53.2765 67.082 51.9471C59.3405 50.8651 53.3771 44.0608 53.3771 35.8238C53.3771 27.5868 59.3405 20.7825 67.082 19.7005C57.572 18.3713 49.0492 25.9187 49.0492 35.8238Z" fill="#8BB3D8"/>
<path fill-rule="evenodd" clip-rule="evenodd" d="M64.918 99.8367C65.6822 99.8367 66.4127 99.6819 67.0819 99.4021C64.9722 98.5196 63.4753 96.3901 63.4753 93.9187V69.8525C63.4753 68.2249 64.7737 66.8936 66.3606 66.8936H62.0327C60.4458 66.8936 59.1475 68.2249 59.1475 69.8525V93.9187C59.1475 97.1736 61.744 99.8367 64.918 99.8367Z" fill="#E1763A"/>
<path d="M60.5902 9.19336H57.7049V6.23438H60.5902V9.19336ZM54.8197 9.19336H51.9344V6.23438H54.8197V9.19336Z" fill="white"/>
<path d="M88 35.8242C88 23.2685 78.4185 12.9665 66.3607 12.1999V0.316406H11.541V3.27539H63.4754V12.1999C51.4176 12.9663 41.8361 23.2685 41.8361 35.8242C41.8361 47.3601 49.9246 56.9934 60.5902 59.0769V65.6687C58.9111 66.2795 57.7049 67.9239 57.7049 69.8527V92.4395H14.4262V80.6035H2.88525V3.27539H8.65574V0.316406H0V82.6957L12.3862 95.3984H57.8501C58.5203 98.7709 61.4346 101.316 64.918 101.316C68.8954 101.316 72.1311 97.998 72.1311 93.9189V89.4805H69.2459V93.9189C69.2459 96.3664 67.3043 98.3574 64.918 98.3574C62.5317 98.3574 60.5902 96.3662 60.5902 93.9189V69.8525C60.5902 69.0368 61.2372 68.373 62.0328 68.373H67.8033C68.5988 68.373 69.2459 69.0368 69.2459 69.8525V80.6035H72.1311V69.8525C72.1311 67.9239 70.9249 66.2793 69.2459 65.6685V59.0767C79.9115 56.9934 88 47.3601 88 35.8242ZM11.541 90.3471L4.92531 83.5625H11.541V90.3471ZM44.7213 35.8242C44.7213 24.4031 53.7816 15.1113 64.918 15.1113C76.0545 15.1113 85.1148 24.4031 85.1148 35.8242C85.1148 47.2453 76.0545 56.5371 64.918 56.5371C53.7816 56.5371 44.7213 47.2451 44.7213 35.8242ZM66.3607 65.4141H63.4754V59.4484C63.9526 59.4787 64.4333 59.4959 64.918 59.4959C65.4028 59.4959 65.8834 59.4787 66.3607 59.4484V65.4141Z" fill="black"/>
<path d="M82.2295 35.8242C82.2295 26.0347 74.4636 18.0703 64.918 18.0703C55.3725 18.0703 47.6066 26.0347 47.6066 35.8242C47.6066 45.6137 55.3725 53.5781 64.918 53.5781C74.4636 53.5781 82.2295 45.6135 82.2295 35.8242ZM50.4918 35.8242C50.4918 27.6663 56.9634 21.0293 64.918 21.0293C72.8727 21.0293 79.3443 27.6663 79.3443 35.8242C79.3443 43.9821 72.8727 50.6191 64.918 50.6191C56.9634 50.6191 50.4918 43.9819 50.4918 35.8242Z" fill="black"/>
<path d="M69.2459 83.5625H72.1312V86.5215H69.2459V83.5625Z" fill="black"/>
<path d="M71.1681 43.8784L71.1695 39.1113C71.1695 32.8574 66.208 27.7695 60.1094 27.7695H58.6667V32.5367C58.6667 38.7906 63.6278 43.8786 69.7259 43.8786H71.1681V43.8784ZM68.2837 40.7889C64.4619 40.0884 61.552 36.6546 61.552 32.5367V30.8593C65.374 31.56 68.2842 34.9938 68.2842 39.1113L68.2837 40.7889Z" fill="black"/>
<path d="M14.4277 57.8857H41.8374V60.8447H14.4277V57.8857Z" fill="black"/>
<path d="M17.313 71.201V74.16H14.4277V77.1189H41.8374V63.8037H38.9521V74.16H34.6243V66.7627H31.739V74.16H27.4113V69.7217H24.5261V74.16H20.1982V71.201H17.313Z" fill="black"/>
<path d="M14.4277 51.9678H41.8374V54.9268H14.4277V51.9678Z" fill="black"/>
<path d="M20.1973 26.8417V31.4759C18.3628 29.5549 15.8071 28.3613 12.9844 28.3613H11.5417V32.7997C11.5417 38.0079 15.3101 42.3306 20.1973 43.0508V46.0499H14.4277V49.0089H28.854V46.0499H23.0825V38.7177H23.0835C23.0835 38.6704 23.0831 38.6232 23.0825 38.5761V31.2149C27.9701 30.4949 31.739 26.1722 31.739 20.964V16.5255H30.2964C27.3129 16.5255 24.6273 17.859 22.7769 19.9755C21.6722 15.4851 17.7002 12.1523 12.9834 12.1523H11.5408V16.5908C11.5408 21.799 15.3097 26.1217 20.1973 26.8417ZM20.1973 40.0487C16.9091 39.3612 14.427 36.3722 14.427 32.7997V31.4688C17.6788 32.1482 20.1421 35.078 20.1973 38.597V40.0487ZM23.0825 26.8818C23.0825 23.3093 25.5648 20.3201 28.8538 19.633V20.964C28.8538 24.5365 26.3715 27.5256 23.0825 28.2127V26.8818ZM14.426 15.2599C17.715 15.9469 20.1973 18.9361 20.1973 22.5086V23.8395C16.9083 23.1525 14.426 20.1633 14.426 16.5908V15.2599Z" fill="black"/>
</svg>
