<svg width="88" height="102" viewBox="0 0 88 102" fill="none" xmlns="http://www.w3.org/2000/svg">
<path fill-rule="evenodd" clip-rule="evenodd" d="M63.6255 14.1392H23.9883L23.4275 20.0571H64.1861L63.6255 14.1392Z" fill="#F05475"/>
<path fill-rule="evenodd" clip-rule="evenodd" d="M16.1788 20.0572C14.585 20.0572 13.2794 21.3887 13.2794 23.0162V25.9751H74.7208V23.0162C74.7208 21.3887 73.4152 20.0572 71.8215 20.0572H16.1788ZM43.8067 4.75488C43.8067 3.12764 42.5012 1.7959 40.9072 1.7959H27.7765C26.1827 1.7959 25.0305 3.13592 24.877 4.75488L23.988 14.1392H63.6252L62.7363 4.75488C62.5828 3.13513 61.4305 1.7959 59.8367 1.7959H46.7063C45.1123 1.7959 43.8069 3.12764 43.8067 4.75488Z" fill="#E8AB4C"/>
<path fill-rule="evenodd" clip-rule="evenodd" d="M30.6763 38.0768V25.9751H24.4618V36.5973C24.4618 48.4444 21.3269 48.9968 30.9274 52.429C32.7874 58.0657 40.1644 60.3113 44.0001 61.3119C47.836 60.3111 55.2128 58.0657 57.0727 52.429C66.6733 48.9968 63.5383 48.4444 63.5383 36.5973V25.9751H57.3238V38.0768C57.3238 45.419 48.4414 41.0409 44.0001 41.0436C39.5588 41.0409 30.6763 45.419 30.6763 38.0768Z" fill="#E8AB4C"/>
<path fill-rule="evenodd" clip-rule="evenodd" d="M24.4618 36.5973V25.9751H19.0784V33.6383C19.0784 35.2657 20.3834 36.5973 21.9779 36.5973H24.4618ZM63.5383 25.9751V36.5973H66.0225C67.6172 36.5973 68.922 35.2657 68.922 33.6383V25.9751H63.5383Z" fill="#FBF2E2"/>
<path fill-rule="evenodd" clip-rule="evenodd" d="M30.6764 25.9751V38.0768C30.6764 45.419 39.5588 41.0409 44.0002 41.0436C48.4415 41.0411 57.3239 45.419 57.3239 38.0768V33.1633V25.9751H30.6764Z" fill="#FBF2E2"/>
<path fill-rule="evenodd" clip-rule="evenodd" d="M44.0001 61.3121C40.1642 60.3113 32.7874 58.0659 30.9274 52.4292L24.4087 54.6112V73.5102H63.5917V54.6114L57.0729 52.4292C55.2128 58.0659 47.836 60.3115 44.0001 61.3121Z" fill="#E5ECF5"/>
<path fill-rule="evenodd" clip-rule="evenodd" d="M24.4084 73.5102V54.6113L18.6094 56.5524V76.4691C18.6094 74.8423 19.9146 73.5102 21.5089 73.5102H24.4084Z" fill="#F05475"/>
<path fill-rule="evenodd" clip-rule="evenodd" d="M18.6095 56.5522C10.623 59.2256 4.34937 61.9776 4.34937 70.5552V82.3867H18.6095V56.5522Z" fill="#E5ECF5"/>
<path fill-rule="evenodd" clip-rule="evenodd" d="M1.44995 82.3867H18.6094V88.3047H1.44995V82.3867Z" fill="#E5ECF5"/>
<path fill-rule="evenodd" clip-rule="evenodd" d="M18.6096 99.8371H27.3082V85.346H60.6922V99.8371H69.3906V76.4692C69.3906 74.8418 68.0852 73.5103 66.491 73.5103H21.5092C19.915 73.5103 18.6096 74.8422 18.6096 76.4692V99.8371Z" fill="#F05475"/>
<path fill-rule="evenodd" clip-rule="evenodd" d="M27.308 85.3457H60.6919V99.8368H27.308V85.3457Z" fill="#E21743"/>
<path fill-rule="evenodd" clip-rule="evenodd" d="M63.5917 73.5102V54.6113L69.3907 56.5524V76.4691C69.3907 74.8423 68.0854 73.5102 66.4912 73.5102H63.5917Z" fill="#F05475"/>
<path fill-rule="evenodd" clip-rule="evenodd" d="M69.3906 56.5522C77.3771 59.2256 83.6507 61.9776 83.6507 70.5552V82.3867H69.3906V56.5522Z" fill="#E5ECF5"/>
<path fill-rule="evenodd" clip-rule="evenodd" d="M69.3906 82.3867H86.5501V88.3047H69.3906V82.3867Z" fill="#E5ECF5"/>
<path fill-rule="evenodd" clip-rule="evenodd" d="M69.3904 88.3047H83.6506V99.8368H69.3904V88.3047ZM18.6095 88.3047H4.34937V99.8368H18.6095V88.3047Z" fill="#FBF2E2"/>
<path fill-rule="evenodd" clip-rule="evenodd" d="M28.3374 14.1392H23.9883L23.4275 20.0571H27.7768L28.3374 14.1392Z" fill="#E21743"/>
<path fill-rule="evenodd" clip-rule="evenodd" d="M16.1788 20.0572C14.585 20.0572 13.2794 21.3887 13.2794 23.0162V25.9751H17.6287V23.0162C17.6287 21.3889 18.9343 20.0572 20.5281 20.0572H16.1788ZM32.1258 1.7959H27.7765C26.1827 1.7959 25.0305 3.13592 24.877 4.75488L23.988 14.1392H28.3373L29.2263 4.75488C29.3798 3.13612 30.5321 1.7959 32.1258 1.7959Z" fill="#E1763A"/>
<path fill-rule="evenodd" clip-rule="evenodd" d="M24.4618 25.9753V36.5975C24.4618 48.4446 21.3269 48.997 30.9274 52.4292C32.7874 58.0659 40.1644 60.3115 44.0001 61.3121C45.7723 60.8497 48.3005 60.1214 50.6911 58.9157C45.0076 57.8797 36.9343 54.494 35.2765 49.47C25.676 46.0378 28.811 45.4855 28.811 33.6383V30.4136H30.6763V25.9751H24.4618V25.9753ZM63.5383 30.4138V25.9753H57.3239V30.4138H63.5383Z" fill="#E1763A"/>
<path fill-rule="evenodd" clip-rule="evenodd" d="M24.4618 30.4136V25.9751H19.0784V30.4136H24.4618ZM68.922 30.4136V25.9751H63.5385V30.4136H68.922Z" fill="#F7E0BA"/>
<path fill-rule="evenodd" clip-rule="evenodd" d="M30.6764 25.9751H57.3237V30.4136H30.6764V25.9751Z" fill="#F7E0BA"/>
<path fill-rule="evenodd" clip-rule="evenodd" d="M18.6095 56.5522C10.623 59.2256 4.34937 61.9776 4.34937 70.5552V82.3867H8.69867V70.5552C8.69867 63.7012 12.9248 58.8991 18.6095 56.5522Z" fill="#B0C5E0"/>
<path fill-rule="evenodd" clip-rule="evenodd" d="M1.44995 82.3867H5.79926V88.3047H1.44995V82.3867Z" fill="#B0C5E0"/>
<path fill-rule="evenodd" clip-rule="evenodd" d="M69.3904 88.3047H83.6506V92.7432H69.3904V88.3047ZM4.34937 88.3047V99.8368H8.69867V92.7432H18.6095V88.3047H4.34937Z" fill="#F7E0BA"/>
<path d="M58.4215 9.19336H55.5219V6.23438H58.4215V9.19336ZM52.6222 9.19336H49.7227V6.23438H52.6222V9.19336Z" fill="white"/>
<path d="M42.5503 98.3574H45.4498V101.316H42.5503V98.3574Z" fill="black"/>
<path d="M42.5503 65.7505H45.4498V68.7095H42.5503V65.7505Z" fill="black"/>
<path d="M22.9587 77.9487H25.8583V80.9077H22.9587V77.9487Z" fill="black"/>
<path d="M62.142 77.9482H65.0415V80.9072H62.142V77.9482Z" fill="black"/>
<path d="M88 80.9073H85.1005V70.5552C85.1005 61.0289 78.1905 57.9408 69.8425 55.1466L61.3475 52.303C62.8765 51.5668 63.9072 50.8103 64.5748 49.8107C65.7029 48.1223 65.5437 46.168 65.3022 43.21C65.1884 41.8136 65.0519 40.1392 65.0049 38.0768H66.0223C68.4204 38.0768 70.3716 36.0856 70.3716 33.6383V27.4546H76.1705V23.016C76.1705 20.5687 74.2195 18.5777 71.8214 18.5777H65.5023L64.1793 4.61246C63.9437 2.12316 62.1174 0.316406 59.837 0.316406H46.7063C45.5935 0.316406 44.5769 0.745262 43.8068 1.4493C43.0369 0.745262 42.0201 0.316406 40.9073 0.316406H27.7766C25.4962 0.316406 23.6699 2.12316 23.4343 4.61246L22.1111 18.5777H16.1786C13.7805 18.5777 11.8295 20.5687 11.8295 23.016V27.4546H17.6284V33.6383C17.6284 36.0856 19.5796 38.0768 21.9777 38.0768H22.9951C22.9481 40.1394 22.8116 41.8138 22.6978 43.21C22.4563 46.168 22.2971 48.1223 23.4252 49.8107C24.0928 50.8101 25.1237 51.5666 26.6527 52.3028L18.1575 55.1466C9.80952 57.9408 2.89954 61.0289 2.89954 70.5552V80.9073H0V89.7843H2.89954V101.316H39.6508V98.3574H28.7578V86.8253H59.2422V98.3574H48.3494V101.316H85.1005V89.7843H88V80.9073ZM82.2009 70.5554V80.9075H70.8403V76.4692V58.6116C77.5856 61.0002 82.2009 63.6174 82.2009 70.5554ZM20.0592 57.624L22.9587 56.6535V72.0305H21.509C21.0008 72.0305 20.5129 72.1209 20.0592 72.285V57.624ZM25.8583 55.6828L30.1187 54.2567C31.2387 56.4817 33.2223 58.381 36.0407 59.9145C38.7241 61.3747 41.6635 62.2294 43.6409 62.7454L43.9999 62.8392L44.3589 62.7454C47.0864 62.0339 54.9932 59.9691 57.8806 54.2565L62.1415 55.6828V72.0305H25.8583V55.6828ZM65.0415 56.6535L67.941 57.624V72.285C67.4873 72.1207 66.9994 72.0305 66.4912 72.0305H65.0415V56.6535ZM67.4722 33.6383C67.4722 34.4542 66.822 35.1178 66.0225 35.1178H64.9881V27.4546H67.4722V33.6383ZM25.3045 15.6187H31.2369V12.6597H25.5847L26.3203 4.89711C26.3968 4.09108 26.9212 3.27519 27.7766 3.27519H40.9073C41.7068 3.27519 42.357 3.9388 42.357 4.75469L45.2566 4.75488C45.2568 3.93919 45.907 3.27539 46.7063 3.27539H59.837C60.6923 3.27539 61.2172 4.09128 61.2935 4.89731L62.0288 12.6599H34.1366V15.6189H62.3091L62.5894 18.5779H25.0242L25.3045 15.6187ZM14.7291 23.016C14.7291 22.2003 15.3793 21.5367 16.1786 21.5367H71.8215C72.6208 21.5367 73.2711 22.2003 73.2711 23.016V24.4956H14.7291V23.016ZM32.1261 27.4546H55.8741V33.1633V38.0766C55.8741 39.1764 55.6365 39.9329 55.1681 40.3252C53.9757 41.3236 50.889 40.6977 48.4086 40.1946C46.8097 39.8701 45.2999 39.564 44.0061 39.564C44.0024 39.5642 43.9993 39.5642 43.996 39.564C42.7007 39.564 41.1903 39.8703 39.5918 40.1946C37.1112 40.6979 34.0249 41.324 32.8322 40.3252C32.3637 39.9329 32.1263 39.1764 32.1263 38.0766V27.4546H32.1261ZM20.528 33.6383V27.4546H23.0121V35.1178H21.9777C21.1784 35.1178 20.528 34.4542 20.528 33.6383ZM25.821 48.1439C25.2954 47.3572 25.3742 46.067 25.5875 43.4554C25.7318 41.6846 25.9116 39.4809 25.9116 36.5971V27.4544H29.2266V38.0766C29.2266 40.1049 29.8208 41.6311 30.9926 42.6125C33.2447 44.499 36.9167 43.7539 40.1571 43.0968C41.6118 42.8017 42.9858 42.523 43.9976 42.523C43.9997 42.5228 44.0016 42.5228 44.0042 42.523C45.0142 42.523 46.3884 42.8017 47.843 43.0968C51.0831 43.7541 54.7553 44.499 57.0074 42.6125C58.1792 41.6309 58.7734 40.1049 58.7734 38.0766V33.1633V27.4546H62.0884V36.5973C62.0884 39.4809 62.2682 41.6848 62.4125 43.4556C62.6258 46.067 62.7046 47.3572 62.179 48.1441C61.527 49.1197 59.5582 49.9729 56.5934 51.033L55.9247 51.2719L55.6988 51.9572C54.0485 56.9581 46.8565 59.0311 43.9999 59.7849C41.1435 59.0313 33.9515 56.9581 32.301 51.9572L32.0751 51.2719L31.4064 51.033C28.4418 49.9727 26.473 49.1195 25.821 48.1439ZM5.79927 70.5554C5.79927 63.6176 10.4146 61.0004 17.1599 58.6116V76.4692V80.9075H5.79927V70.5554ZM2.89973 83.8663H17.1599V86.8253H2.89973V83.8663ZM5.79927 89.7843H17.1599V98.3574H5.79927V89.7843ZM25.8583 83.8663V98.3574H20.0592V76.469C20.0592 75.6531 20.7095 74.9895 21.509 74.9895H66.491C67.2905 74.9895 67.9408 75.6531 67.9408 76.469V98.3574H62.1417V83.8663H25.8583ZM82.2009 98.3574H70.8403V89.7843H82.2009V98.3574ZM85.1005 86.8253H70.8403V83.8663H85.1005V86.8253Z" fill="black"/>
</svg>
