<svg width="88" height="102" viewBox="0 0 88 102" fill="none" xmlns="http://www.w3.org/2000/svg">
<path fill-rule="evenodd" clip-rule="evenodd" d="M11.6016 75.5878H76.3984V48.1436H11.6016V75.5878ZM11.6016 96.1709H76.3984V82.4487H11.6016V96.1709ZM36.2656 60.1503C36.2656 58.2635 37.4258 56.7197 38.8438 56.7197H49.1562C50.5742 56.7197 51.7344 58.2635 51.7344 60.1503V63.5808C51.7344 65.4677 50.5742 67.0114 49.1562 67.0114H38.8438C37.4258 67.0114 36.2656 65.4677 36.2656 63.5808V60.1503Z" fill="#E8AB4C"/>
<path fill-rule="evenodd" clip-rule="evenodd" d="M38.8438 67.0114H49.1562C50.5742 67.0114 51.7344 65.4677 51.7344 63.5808V60.1503C51.7344 58.2635 50.5742 56.7197 49.1562 56.7197H38.8438C37.4258 56.7197 36.2656 58.2635 36.2656 60.1503V63.5808C36.2656 65.4677 37.4258 67.0114 38.8438 67.0114Z" fill="#E1763A"/>
<path fill-rule="evenodd" clip-rule="evenodd" d="M11.6016 75.5879H76.3984V82.4488H11.6016V75.5879Z" fill="#E1763A"/>
<path fill-rule="evenodd" clip-rule="evenodd" d="M76.3984 99.6013H86.7109V41.2822H76.3984V99.6013ZM1.28906 99.6013H11.6016V41.2822H1.28906V99.6013Z" fill="#E8AB4C"/>
<path fill-rule="evenodd" clip-rule="evenodd" d="M50.3499 48.1437H76.3984V41.2826H79.1953C81.6827 28.0709 72.5724 16.7232 62.7671 24.3304C56.3689 19.3664 50.5865 22.3569 47.7633 28.3942C49.9887 31.8662 50.6334 36.8954 49.096 41.2826C50.5014 43.7924 50.8156 46.0362 50.3499 48.1437Z" fill="#F05475"/>
<path fill-rule="evenodd" clip-rule="evenodd" d="M50.3499 48.1432H76.3985V41.2821H79.1954C79.5271 39.5199 79.6508 37.7916 79.5957 36.1362H72.5313V42.9973H49.9056C50.6057 44.8318 50.7071 46.5274 50.3499 48.1432Z" fill="#E21743"/>
<path fill-rule="evenodd" clip-rule="evenodd" d="M37.3855 48.1437H50.3499C50.8157 46.0362 50.5015 43.7923 49.0961 41.2826C50.6335 36.8956 49.9888 31.8661 47.7633 28.3942C46.9528 27.1294 45.9324 26.0712 44.7315 25.3261C41.6778 23.4313 38.2105 24.0282 35.6427 26.4788C36.3754 28.2126 36.7941 30.2092 36.7941 32.3297C40.9959 35.693 39.9638 41.4628 37.3855 48.1437ZM6.44526 41.2826H11.6015V48.1437H18.1558C15.5775 41.4628 14.5454 35.693 18.7472 32.3297C18.7472 30.2092 19.1659 28.2126 19.8991 26.4795C17.3308 24.0284 13.8634 23.4315 10.8099 25.3263C6.31189 28.1172 4.34787 35.2976 6.44526 41.2826Z" fill="#B6EFBB"/>
<path fill-rule="evenodd" clip-rule="evenodd" d="M37.3855 48.1434H50.3499C50.7069 46.5277 50.6056 44.832 49.9056 42.9976H39.0539C38.6562 44.6285 38.0765 46.3532 37.3855 48.1434ZM5.60533 36.1367H15.4687V42.9978H16.4874C16.8853 44.6285 17.4651 46.3534 18.156 48.1437H11.6015V41.2826H6.44529C5.86263 39.6194 5.59382 37.8643 5.60533 36.1367Z" fill="#71E4BF"/>
<path fill-rule="evenodd" clip-rule="evenodd" d="M37.3856 48.1432C39.9639 41.4623 40.996 35.6925 36.7942 32.3292C36.7942 30.2087 36.3755 28.2121 35.6428 26.4783C34.0935 22.8126 31.1402 20.3223 27.7707 20.3223C24.4013 20.3223 21.448 22.8126 19.8987 26.4783C19.166 28.2121 18.7473 30.2087 18.7473 32.3292C14.5455 35.6925 15.5776 41.4623 18.1559 48.1432H37.3856Z" fill="#B6EFBB"/>
<path fill-rule="evenodd" clip-rule="evenodd" d="M37.3856 48.1434C38.0765 46.3531 38.6563 44.6282 39.0541 42.9976H16.4873C16.8852 44.6282 17.4649 46.3531 18.1559 48.1434H37.3856Z" fill="#71E4BF"/>
<path fill-rule="evenodd" clip-rule="evenodd" d="M62.7672 15.7508C67.0211 15.7508 70.5023 11.1227 70.5023 5.4623V2.03174C66.248 2.03174 62.7672 6.66208 62.7672 12.3234V15.7508Z" fill="#B6EFBB"/>
<path fill-rule="evenodd" clip-rule="evenodd" d="M76.3984 99.6013H80.2656V41.2822H76.3984V99.6013ZM1.28906 99.6013H5.15625V41.2822H1.28906V99.6013Z" fill="#E1763A"/>
<path fill-rule="evenodd" clip-rule="evenodd" d="M11.6016 96.1709H15.4688V82.4487H11.6016V96.1709ZM11.6016 75.5878H15.4688V48.1436H11.6016V75.5878Z" fill="#E1763A"/>
<path d="M72.5312 56.7201H69.9531V53.2896H72.5312V56.7201ZM67.375 56.7201H64.7969V53.2896H67.375V56.7201Z" fill="white"/>
<path d="M80.7551 39.567C81.4215 33.1242 79.6288 26.8676 75.9576 23.1982C72.5732 19.8157 68.2428 19.2625 64.0564 21.5664V17.3439C68.424 16.5093 71.7915 11.4989 71.7915 5.46224V0.316406H70.5024C65.5265 0.316406 61.4783 5.70261 61.4783 12.3234V21.5584C58.8124 20.0648 56.1246 19.7201 53.6063 20.5748C51.2624 21.3702 49.176 23.1841 47.5996 25.7579C46.9035 24.9693 46.1258 24.2985 45.2765 23.7716C42.3182 21.936 38.8872 22.1025 36.0369 24.1364C34.1548 20.7833 31.1506 18.6075 27.7709 18.6075C24.3911 18.6075 21.3869 20.7833 19.5049 24.1364C16.6547 22.1025 13.2239 21.9362 10.2654 23.7716C9.82025 24.0479 9.38455 24.371 8.9705 24.7324L10.3843 27.601C10.6953 27.3298 11.0217 27.0873 11.3549 26.8808C13.5537 25.5166 16.1028 25.6303 18.2323 27.1219C17.8209 28.4516 17.56 29.8839 17.4828 31.3831C15.5172 33.2493 14.5549 35.8206 14.6207 39.0392C14.6635 41.1318 15.1432 43.5218 16.1097 46.4284H12.8906V39.5675H7.3138C6.43689 36.1717 6.96111 32.3388 8.73675 29.5432L6.76775 27.3286C4.59645 30.7468 3.83264 35.3339 4.62842 39.5673H0V101.316H12.8906V97.8858H62.2188V94.4553H12.8906V84.1636H75.1094V94.4553H69.9531V97.8858H75.1094V101.316H88V39.567H80.7551ZM64.0563 12.3231C64.0563 8.18131 66.2743 4.71575 69.2132 3.91918V5.46224C69.2132 9.6027 66.9952 13.0669 64.0563 13.8632V12.3231ZM54.2432 23.8985C56.705 23.0633 59.4278 23.7249 62.1179 25.8119L62.7672 26.3157L63.4165 25.8119C67.3032 22.7966 71.3097 22.8435 74.4092 25.9411C77.4123 28.9426 78.8231 34.1852 78.1469 39.5668H75.1094V46.4277H51.836C51.8521 44.6587 51.4267 42.8693 50.5593 41.0792C51.4372 38.0109 51.4558 34.6533 50.5986 31.5192C50.2851 30.3729 49.8652 29.306 49.356 28.3326C50.6112 26.1096 52.3194 24.5515 54.2432 23.8985ZM44.1868 26.8804C46.0501 28.0365 47.4667 30.1007 48.1757 32.6929C48.8847 35.285 48.7967 38.0777 47.9277 40.5573L47.6023 41.4859L48.0624 42.3074C49.0394 44.0517 49.2821 45.4042 49.2633 46.4282H39.4321C40.3985 43.5218 40.8782 41.1318 40.921 39.039C40.9867 35.8204 40.0245 33.2491 38.059 31.3829C37.9818 29.8837 37.7209 28.4511 37.3094 27.1216C39.439 25.63 41.988 25.5164 44.1868 26.8804ZM19.4117 33.7991L20.0363 33.2992V32.3292C20.0363 26.6544 23.506 22.0376 27.7707 22.0376C32.0354 22.0376 35.5051 26.6544 35.5051 32.3292V33.2992L36.1297 33.7991C39.3446 36.3725 38.7023 40.7112 36.5903 46.4279H29.0598V30.614H26.4816V46.4279H18.9511C16.8393 40.7115 16.1968 36.3725 19.4117 33.7991ZM75.1094 49.8585V73.8722H12.8906V49.8585H75.1094ZM10.3125 97.8858H2.57812V42.9976H10.3125V97.8858ZM12.8906 80.733V77.3027H75.1094V80.733H12.8906ZM85.4219 97.8858H77.6875V42.9976H85.4219V97.8858Z" fill="black"/>
<path d="M64.7969 94.4556H67.375V97.8861H64.7969V94.4556Z" fill="black"/>
<path d="M38.8438 68.7266H49.1562C51.2887 68.7266 53.0234 66.4183 53.0234 63.5808V60.1502C53.0234 57.3127 51.2887 55.0044 49.1562 55.0044H38.8438C36.7113 55.0044 34.9766 57.3127 34.9766 60.1502V63.5808C34.9766 66.4181 36.7113 68.7266 38.8438 68.7266ZM37.5547 60.1502C37.5547 59.2045 38.133 58.435 38.8438 58.435H49.1562C49.867 58.435 50.4453 59.2045 50.4453 60.1502V63.5808C50.4453 64.5265 49.867 65.2961 49.1562 65.2961H38.8438C38.133 65.2961 37.5547 64.5265 37.5547 63.5808V60.1502Z" fill="black"/>
</svg>
