<svg width="88" height="99" viewBox="0 0 88 99" fill="none" xmlns="http://www.w3.org/2000/svg">
<path d="M36.6666 54.1295C35.0459 55.9896 32.4206 55.9896 30.7999 54.1295C29.1793 52.2694 29.1793 49.2562 30.7999 47.3962L35.1999 42.3462L32.2666 38.9795H13.2V79.3795H16.8901C16.8666 79.1825 16.8564 78.9856 16.8608 78.7853C16.8608 78.7701 16.8622 78.755 16.8637 78.7398C16.871 78.558 16.8842 78.3762 16.9165 78.1944C16.9282 78.1254 16.9488 78.0581 16.9649 77.9891C16.9957 77.8561 17.0221 77.7248 17.0661 77.5952C17.135 77.3898 17.2201 77.1878 17.3257 76.9942L21.7462 68.9361C22.6614 67.2679 24.5828 66.7663 26.0362 67.8167C27.4897 68.8671 27.9267 71.0722 27.0115 72.7404C27.9267 71.0722 29.8481 70.5706 31.3015 71.621C32.755 72.6714 33.1921 74.8766 32.2769 76.5448C33.1921 74.8766 35.1134 74.3749 36.5669 75.4253C38.0203 76.4757 38.4574 78.6809 37.5422 80.3491C38.4574 78.6809 40.3787 78.1793 41.8322 79.2297C42.6755 79.839 43.1625 80.8373 43.2563 81.8927L50.5999 90.3212L43.9999 82.7445L50.5999 90.3212C51.8143 91.715 53.7855 91.715 54.9999 90.3212C56.2143 88.9274 56.2143 86.665 54.9999 85.2712L46.9333 76.0128L54.9999 85.2712C56.2143 86.665 58.1855 86.665 59.3999 85.2712C60.6143 83.8774 60.6143 81.615 59.3999 80.2212L51.3333 70.9628L59.3999 80.2212C60.6143 81.615 62.5855 81.615 63.7999 80.2212C65.0143 78.8274 65.0143 76.565 63.7999 75.1712L41.0666 49.0795L36.6666 54.1295Z" fill="#E4D9B3"/>
<path d="M13.2001 35.6128H1.4668V82.7461H13.2001V79.3795V38.9795V35.6128Z" fill="#B3D5E4"/>
<path d="M38.1334 38.9795L35.2001 42.3462L30.8001 47.3962C29.1794 49.2562 29.1794 52.2694 30.8001 54.1295C32.4208 55.9896 35.0461 55.9896 36.6668 54.1295L41.0668 49.0795L63.8001 75.1712L66.0001 77.6962L74.8001 79.3795V38.9795H38.1334Z" fill="#E4D9B3"/>
<path d="M41.8338 79.2312C40.3803 78.1808 38.459 78.6807 37.5438 80.3506L33.1232 88.4087C32.208 90.0769 32.6436 92.2821 34.0986 93.3325C35.552 94.3829 37.4734 93.8829 38.3886 92.2131L42.8091 84.1549C43.1934 83.453 43.3268 82.6585 43.2579 81.8942C43.164 80.8388 42.6756 79.8406 41.8338 79.2312Z" fill="#E4D9B3"/>
<path d="M36.567 75.4255C35.1136 74.3751 33.1922 74.8751 32.277 76.5449L27.8565 84.6031C26.9413 86.2712 27.3769 88.4764 28.8318 89.5268C30.2853 90.5772 32.2066 90.0773 33.1218 88.4074L37.5424 80.3493C38.4576 78.6811 38.022 76.4776 36.567 75.4255Z" fill="#E4D9B3"/>
<path d="M31.3016 71.6208C29.8482 70.5704 27.9269 71.0704 27.0117 72.7403L22.5911 80.7984C21.6759 82.4666 22.1115 84.6717 23.5665 85.7221C25.0199 86.7725 26.9413 86.2726 27.8565 84.6027L32.277 76.5446C33.1922 74.8764 32.7566 72.6712 31.3016 71.6208Z" fill="#E4D9B3"/>
<path d="M74.8 38.9795V79.3795V82.7461H86.5334V35.6128H74.8V38.9795Z" fill="#B3D5E4"/>
<path d="M33.7334 20.463C33.7334 26.9708 38.3299 32.2463 44.0001 32.2463C49.6702 32.2463 54.2667 26.9708 54.2667 20.463C54.2667 13.9553 49.6702 8.67969 44.0001 8.67969C38.3299 8.67969 33.7334 13.9553 33.7334 20.463ZM46.9334 17.0964C46.9334 15.2363 45.6207 13.7297 44.0001 13.7297C42.3794 13.7297 41.0667 15.2363 41.0667 17.0964C41.0667 18.9564 42.3794 20.463 44.0001 20.463C45.6207 20.463 46.9334 21.9696 46.9334 23.8297C46.9334 25.6898 45.6207 27.1963 44.0001 27.1963V30.563V27.1963C42.3794 27.1963 41.0667 25.6898 41.0667 23.8297C41.0667 25.6898 42.3794 27.1963 44.0001 27.1963C45.6207 27.1963 46.9334 25.6898 46.9334 23.8297C46.9334 21.9696 45.6207 20.463 44.0001 20.463C42.3794 20.463 41.0667 18.9564 41.0667 17.0964C41.0667 15.2363 42.3794 13.7297 44.0001 13.7297V10.363V13.7297C45.6207 13.7297 46.9334 15.2363 46.9334 17.0964Z" fill="#D45B5B"/>
<path d="M86.5333 33.9292H74.8C73.9904 33.9292 73.3333 34.6816 73.3333 35.6125V37.2959H38.1333C37.7447 37.2959 37.3707 37.4726 37.0964 37.7891L35.2 39.9656L33.3036 37.7891C33.0293 37.4726 32.6553 37.2959 32.2667 37.2959H14.6667V35.6125C14.6667 34.6816 14.0096 33.9292 13.2 33.9292H1.46667C0.657067 33.9292 0 34.6816 0 35.6125V82.7459C0 83.6767 0.657067 84.4292 1.46667 84.4292H13.2C14.0096 84.4292 14.6667 83.6767 14.6667 82.7459V81.0625H15.7872C16.1524 81.9951 16.7479 82.7846 17.5193 83.3418C18.2747 83.8872 19.1165 84.1481 19.9496 84.1481C20.24 84.1481 20.5245 84.0875 20.8076 84.0252C21.0921 85.2726 21.7609 86.4071 22.7832 87.1478C23.5385 87.6932 24.3804 87.9541 25.2149 87.9541C25.5039 87.9541 25.7884 87.8935 26.0715 87.8312C26.3663 89.1274 27.0571 90.235 28.0485 90.9504C28.7877 91.4857 29.6267 91.7618 30.4803 91.7618C30.7677 91.7618 31.0552 91.713 31.3427 91.649C31.6287 92.8913 32.296 94.0191 33.3153 94.7565C34.0707 95.3018 34.914 95.5628 35.7471 95.5628C37.2695 95.5628 38.7596 94.6925 39.6279 93.1101L40.6047 91.3292L45.1616 96.5593C46.0533 97.5828 47.2267 98.0945 48.3985 98.0945C49.5704 98.0945 50.7437 97.5828 51.6355 96.5593C52.4627 95.6116 52.9217 94.3609 52.9613 93.026C54.0789 92.9805 55.1848 92.4856 56.0355 91.5093C56.8627 90.5616 57.3217 89.3109 57.3613 87.976C58.4789 87.9305 59.5848 87.4356 60.4355 86.4593C61.2627 85.5116 61.7217 84.2609 61.7613 82.926C62.8789 82.8805 63.9848 82.3856 64.8355 81.4093C65.3385 80.8319 65.692 80.1367 65.9149 79.3843L73.3333 80.805V82.7459C73.3333 83.6767 73.9904 84.4292 74.8 84.4292H86.5333C87.3429 84.4292 88 83.6767 88 82.7459V35.6125C88 34.6816 87.3429 33.9292 86.5333 33.9292ZM11.7333 81.0625H2.93333V37.2959H11.7333V38.9792V79.3792V81.0625ZM19.0813 80.4919C18.7103 80.2242 18.4507 79.8051 18.3539 79.3136C18.3113 79.1015 18.3172 78.886 18.3377 78.6756C18.3421 78.62 18.3495 78.5645 18.3583 78.5072C18.3979 78.2918 18.4595 78.0814 18.5651 77.8895L22.9856 69.8313C23.0927 69.6361 23.2335 69.4829 23.3845 69.3499C23.4212 69.3179 23.4593 69.2859 23.4975 69.2573C23.6515 69.1445 23.8187 69.0536 23.9947 69.0048C24.0181 68.9981 24.0445 68.9998 24.068 68.9947C24.2249 68.9594 24.3877 68.9577 24.5491 68.9779C24.6019 68.9846 24.6547 68.9914 24.7075 69.0031C24.8952 69.0469 25.0815 69.1159 25.2531 69.2405C26.0201 69.796 26.2519 70.9642 25.7693 71.8446L21.3488 79.9027C20.8677 80.7814 19.8513 81.0507 19.0813 80.4919ZM24.3481 84.2996C23.5811 83.7441 23.3493 82.5758 23.8319 81.6955L25.5244 78.6099L28.2524 73.6373C28.5648 73.0667 29.1001 72.7553 29.6472 72.7553C29.9464 72.7553 30.25 72.8495 30.5213 73.0465C30.8924 73.3141 31.1505 73.7333 31.2488 74.2248C31.3471 74.7164 31.2708 75.223 31.0361 75.6489L26.6156 83.707C26.1316 84.5874 25.1152 84.8517 24.3481 84.2996ZM29.612 88.1022C29.2409 87.8346 28.9828 87.4154 28.8845 86.9256C28.7877 86.4341 28.8625 85.9274 29.0972 85.5015L33.5177 77.4434C34.0017 76.563 35.0196 76.2953 35.7867 76.8508C36.5537 77.4046 36.7855 78.5712 36.3015 79.4533L31.8795 87.5114C31.6463 87.9389 31.2811 88.2352 30.8528 88.3463C30.4275 88.4574 29.986 88.3732 29.612 88.1022ZM37.1463 91.3157C36.6623 92.1978 35.6444 92.4654 34.8788 91.9082C34.1117 91.3544 33.88 90.1862 34.3625 89.3058L38.7831 81.2494C38.7831 81.2494 38.7831 81.2494 38.7831 81.2477C39.0177 80.8218 39.3829 80.5239 39.8112 80.4128C39.9329 80.3808 40.0561 80.3673 40.1779 80.3673C40.4844 80.3673 40.7865 80.4666 41.052 80.6585C41.4231 80.9262 41.6827 81.3453 41.7795 81.8369C41.8763 82.3267 41.8015 82.8334 41.5668 83.2593L37.1463 91.3157ZM49.5631 94.1807C48.9207 94.918 47.8793 94.918 47.2369 94.1807L42.2077 88.4086L44.0059 85.1328L49.5631 91.511C49.874 91.8678 50.0456 92.3409 50.0456 92.8459C50.0456 93.3509 49.874 93.8239 49.5631 94.1807ZM62.7631 79.0307C62.1207 79.768 61.0793 79.768 60.4369 79.0307L52.3703 69.7724L50.2964 72.1526L58.3631 81.411C58.674 81.7678 58.8456 82.2409 58.8456 82.7459C58.8456 83.2509 58.674 83.7239 58.3631 84.0807C57.7207 84.818 56.6793 84.818 56.0369 84.0807L47.9703 74.8224L45.8964 77.2026L53.9631 86.461C54.274 86.8178 54.4456 87.2909 54.4456 87.7959C54.4456 88.3009 54.274 88.7739 53.9631 89.1307C53.3207 89.868 52.2793 89.868 51.6369 89.1307L45.0369 81.5541L44.6424 81.1013C44.6409 81.0962 44.6424 81.0911 44.6409 81.0878C44.3696 79.7192 43.6509 78.5544 42.6155 77.807C41.6284 77.0932 40.4668 76.8576 39.3213 77.1067C39.0353 75.8661 38.368 74.7382 37.3501 74.0009C36.3323 73.2653 35.1575 73.0633 34.0589 73.3041C33.7627 72.0129 33.0733 70.9104 32.0848 70.1966C31.0655 69.461 29.8907 69.259 28.7907 69.4997C28.5047 68.2574 27.8373 67.1279 26.818 66.3906C24.6825 64.847 21.8489 65.5876 20.5055 68.0386L16.0849 76.0967C15.9397 76.361 15.8209 76.6421 15.7212 76.9316C15.664 77.0932 15.6273 77.2582 15.5848 77.4249C15.5613 77.5174 15.5276 77.605 15.5085 77.6992H14.6667V40.6625H31.6595L33.1261 42.3459L29.7631 46.2058C27.5733 48.7173 27.5733 52.8078 29.7631 55.3193C31.9513 57.8308 35.5153 57.8308 37.7036 55.3193L41.0667 51.4594L62.7631 76.361C63.074 76.7178 63.2456 77.1909 63.2456 77.6959C63.2456 78.2009 63.074 78.6739 62.7631 79.0307ZM66.704 76.1236L64.8369 73.9807L42.1036 47.8891C41.5301 47.2309 40.6032 47.2309 40.0297 47.8891L35.6297 52.9391C34.6177 54.1023 32.8489 54.1023 31.8369 52.9391C31.7079 52.7909 31.5949 52.6294 31.4967 52.461C31.4717 52.4172 31.4556 52.3684 31.4336 52.3247C31.3661 52.1934 31.3001 52.0637 31.2503 51.9257C31.2371 51.887 31.2312 51.8449 31.218 51.8045C31.1711 51.6564 31.1271 51.5066 31.1021 51.3534C31.0933 51.2995 31.0948 51.2423 31.0875 51.1884C31.0537 50.9056 31.0537 50.6194 31.0875 50.335C31.0933 50.2811 31.0919 50.2256 31.1007 50.1734C31.1271 50.0185 31.1711 49.8687 31.218 49.7205C31.2297 49.6818 31.2356 49.6398 31.2488 49.601C31.2987 49.4613 31.3661 49.3283 31.4336 49.197C31.4556 49.1533 31.4703 49.1061 31.4952 49.0657C31.592 48.8974 31.7049 48.7358 31.8355 48.5877L36.2355 43.5377L38.7405 40.6625H73.3333V77.3912L66.704 76.1236ZM85.0667 81.0625H76.2667V79.3792V38.9792V37.2959H85.0667V81.0625Z" fill="#23374E"/>
<path d="M44 33.9294C50.4695 33.9294 55.7333 27.8879 55.7333 20.4628C55.7333 13.0376 50.4695 6.99609 44 6.99609C37.5305 6.99609 32.2667 13.0376 32.2667 20.4628C32.2667 27.8879 37.5305 33.9294 44 33.9294ZM52.8 20.4628C52.8 25.4572 49.6217 29.6049 45.4667 30.4113V28.5697C47.1695 27.8728 48.4 26.0211 48.4 23.8294C48.4 21.0452 46.4259 18.7794 44 18.7794C43.1919 18.7794 42.5333 18.0253 42.5333 17.0961C42.5333 16.1669 43.1919 15.4128 44 15.4128C44.8081 15.4128 45.4667 16.1669 45.4667 17.0961H48.4C48.4 14.9044 47.1695 13.0527 45.4667 12.3558V10.5143C49.6217 11.3206 52.8 15.4683 52.8 20.4628ZM42.5333 10.5143V12.3558C40.8305 13.0527 39.6 14.9044 39.6 17.0961C39.6 19.8803 41.5741 22.1461 44 22.1461C44.8081 22.1461 45.4667 22.9002 45.4667 23.8294C45.4667 24.7586 44.8081 25.5128 44 25.5128C43.1919 25.5128 42.5333 24.7586 42.5333 23.8294H39.6C39.6 26.0211 40.8305 27.8728 42.5333 28.5697V30.4113C38.3783 29.6066 35.2 25.4589 35.2 20.4628C35.2 15.4666 38.3783 11.3206 42.5333 10.5143Z" fill="#23374E"/>
<path d="M30.3204 4.64111C29.4125 5.27236 28.5311 5.97431 27.6995 6.72508L29.5123 9.37128C30.2515 8.70468 31.0361 8.07848 31.8428 7.51625L30.3204 4.64111Z" fill="#23374E"/>
<path d="M18.0225 25.142L20.9089 25.7396C21.0775 24.674 21.3034 23.6085 21.5821 22.5766L18.7807 21.5801C18.4654 22.7433 18.2117 23.9418 18.0225 25.142Z" fill="#23374E"/>
<path d="M27.3914 11.534L25.3161 9.15381C24.5681 10.014 23.8568 10.9365 23.2026 11.896L25.5126 13.9698C26.0949 13.1181 26.727 12.2983 27.3914 11.534Z" fill="#23374E"/>
<path d="M19.9085 18.1549L22.5837 19.5352C22.9709 18.5471 23.4138 17.5775 23.9008 16.6534L21.3898 14.9111C20.8428 15.9514 20.3441 17.0439 19.9085 18.1549Z" fill="#23374E"/>
<path d="M45.5767 0.316406L45.4036 3.67634C46.3496 3.74031 47.2971 3.87161 48.2196 4.06351L48.7432 0.749023C47.7048 0.53524 46.6386 0.38879 45.5767 0.316406Z" fill="#23374E"/>
<path d="M54.8284 2.92236C53.8575 2.42073 52.8528 1.98475 51.8452 1.62451L50.9725 4.83968C51.8687 5.15951 52.7619 5.54836 53.6272 5.99445L54.8284 2.92236Z" fill="#23374E"/>
<path d="M57.6547 4.62744L56.1367 7.50762C56.9405 8.06649 57.7251 8.68764 58.4687 9.35929L60.2786 6.70972C59.4411 5.95559 58.5582 5.25532 57.6547 4.62744Z" fill="#23374E"/>
<path d="M69.9717 25.1035C69.7811 23.9033 69.5258 22.7082 69.2105 21.5483L66.4106 22.5482C66.6893 23.5784 66.9166 24.6423 67.0853 25.7062L69.9717 25.1035Z" fill="#23374E"/>
<path d="M64.0845 16.626C64.5729 17.5552 65.0173 18.5232 65.4016 19.5045L68.0768 18.1242C67.6441 17.0183 67.144 15.9275 66.594 14.8838L64.0845 16.626Z" fill="#23374E"/>
<path d="M36.1225 1.63428C35.1091 1.99788 34.1059 2.43723 33.1423 2.93549L34.3479 6.00253C35.2059 5.55813 36.0976 5.16928 36.9981 4.8444L36.1225 1.63428Z" fill="#23374E"/>
<path d="M42.3896 0.316406C41.3278 0.390473 40.2615 0.538606 39.2231 0.75744L39.7511 4.06856C40.6736 3.87497 41.6211 3.74367 42.5656 3.67802L42.3896 0.316406Z" fill="#23374E"/>
<path d="M60.5923 11.5174C61.2567 12.28 61.8889 13.0981 62.4741 13.9532L64.7797 11.8726C64.1226 10.9148 63.4113 9.99402 62.6662 9.13721L60.5923 11.5174Z" fill="#23374E"/>
</svg>
