<svg width="16" height="20" viewBox="0 0 16 20" fill="none" xmlns="http://www.w3.org/2000/svg">
<path fill-rule="evenodd" clip-rule="evenodd" d="M8.34364 0C12.4222 0 15.721 3.13 15.721 7C15.721 12.25 8.34364 20 8.34364 20C8.34364 20 0.966309 12.25 0.966309 7C0.966309 3.13 4.26503 0 8.34364 0ZM3.07416 7C3.07416 9.85 6.15155 14.21 8.34367 16.88C10.578 14.19 13.6132 9.88 13.6132 7C13.6132 4.24 11.2524 2 8.34367 2C5.4349 2 3.07416 4.24 3.07416 7ZM8.34377 9.5C6.88863 9.5 5.70901 8.38071 5.70901 7C5.70901 5.61929 6.88863 4.5 8.34377 4.5C9.79891 4.5 10.9785 5.61929 10.9785 7C10.9785 8.38071 9.79891 9.5 8.34377 9.5Z" fill="#FB9333"/>
</svg>
