<svg width="26" height="24" viewBox="0 0 26 24" fill="none" xmlns="http://www.w3.org/2000/svg">
<path fill-rule="evenodd" clip-rule="evenodd" d="M7.2888 5C7.35204 5.89 7.51012 6.76 7.76306 7.59L6.49838 8.79C6.06628 7.59 5.79226 6.32 5.69741 5H7.2888ZM17.6803 17.02C18.5761 17.26 19.493 17.41 20.4204 17.47V18.96C19.0293 18.87 17.6908 18.61 16.4156 18.21L17.6803 17.02ZM8.30055 3H4.61189C4.03224 3 3.55798 3.45 3.55798 4C3.55798 13.39 11.5782 21 21.4744 21C22.054 21 22.5283 20.55 22.5283 20V16.51C22.5283 15.96 22.054 15.51 21.4744 15.51C20.1675 15.51 18.8923 15.31 17.7119 14.94C17.6065 14.9 17.4906 14.89 17.3852 14.89C17.1112 14.89 16.8477 14.99 16.6369 15.18L14.3183 17.38C11.3358 15.93 8.89074 13.62 7.37312 10.79L9.69171 8.59C9.9868 8.31 10.0711 7.92 9.95518 7.57C9.56524 6.45 9.35446 5.25 9.35446 4C9.35446 3.45 8.8802 3 8.30055 3Z" fill="#FB9333"/>
</svg>
