<svg width="27" height="24" viewBox="0 0 27 24" fill="none" xmlns="http://www.w3.org/2000/svg">
<g clip-path="url(#clip0)">
<path d="M23.9208 0H3.20318C1.93956 0 0.915161 0.972 0.915161 2.17099V21.8289C0.915161 23.028 1.93956 24 3.20318 24H23.9208C25.1845 24 26.2089 23.028 26.2089 21.8289V2.17099C26.2089 0.972 25.1845 0 23.9208 0ZM8.7421 20.7232C8.7421 21.0721 8.44401 21.355 8.07626 21.355H5.24191C4.87415 21.355 4.57606 21.0721 4.57606 20.7232V9.4494C4.57606 9.10046 4.87415 8.81761 5.24191 8.81761H8.07626C8.44401 8.81761 8.7421 9.10046 8.7421 9.4494V20.7232ZM6.65908 7.75489C5.17198 7.75489 3.96643 6.61099 3.96643 5.19996C3.96643 3.78892 5.17198 2.64503 6.65908 2.64503C8.14618 2.64503 9.35174 3.78892 9.35174 5.19996C9.35174 6.61099 8.14625 7.75489 6.65908 7.75489ZM23.5543 20.7741C23.5543 21.0949 23.2802 21.355 22.9421 21.355H19.9007C19.5626 21.355 19.2885 21.0949 19.2885 20.7741V15.486C19.2885 14.6972 19.5323 12.0292 17.1158 12.0292C15.2413 12.0292 14.8611 13.8553 14.7848 14.6749V20.7741C14.7848 21.0949 14.5107 21.355 14.1726 21.355H11.231C10.8929 21.355 10.6187 21.0949 10.6187 20.7741V9.39851C10.6187 9.07772 10.8929 8.81761 11.231 8.81761H14.1726C14.5107 8.81761 14.7848 9.07772 14.7848 9.39851V10.3821C15.4798 9.39236 16.5128 8.62844 18.7121 8.62844C23.5822 8.62844 23.5543 12.9457 23.5543 15.3178V20.7741Z" fill="#FB9333"/>
</g>
<defs>
<clipPath id="clip0">
<rect width="25.2937" height="24" fill="white" transform="translate(0.915161)"/>
</clipPath>
</defs>
</svg>
