<svg width="29" height="22" viewBox="0 0 29 22" fill="none" xmlns="http://www.w3.org/2000/svg">
<path d="M9.55125 21.9998C19.892 21.9998 25.5468 13.5366 25.5468 6.19785C25.5468 5.95746 25.5418 5.71809 25.5309 5.47997C26.6285 4.69599 27.5826 3.71768 28.3352 2.60409C27.328 3.04647 26.2438 3.34407 25.1068 3.47852C26.2674 2.79079 27.1586 1.70322 27.5789 0.40665C26.4926 1.04275 25.2897 1.50496 24.009 1.75465C22.9832 0.675134 21.5225 0 19.9052 0C16.8007 0 14.283 2.4872 14.283 5.55308C14.283 5.98905 14.3324 6.41285 14.4288 6.8195C9.75633 6.58715 5.61304 4.37732 2.84052 1.01673C2.35781 1.83746 2.07935 2.791 2.07935 3.80834C2.07935 5.73503 3.07195 7.43618 4.58113 8.43123C3.65877 8.40314 2.79244 8.15304 2.03503 7.73668C2.03419 7.76002 2.03419 7.78273 2.03419 7.80752C2.03419 10.4973 3.97194 12.7431 6.54459 13.252C6.07212 13.379 5.57499 13.4473 5.06217 13.4473C4.7005 13.4473 4.34803 13.4122 4.00539 13.3472C4.7212 15.5539 6.79672 17.1596 9.25732 17.2047C7.33316 18.6945 4.90914 19.582 2.27482 19.582C1.82158 19.582 1.37378 19.5564 0.933716 19.5052C3.4217 21.0805 6.3763 22 9.55146 22" fill="#FB9333"/>
</svg>
